<?xml version="1.0" encoding="utf-8"?>
<!-- Generator: Adobe Illustrator 26.5.2, SVG Export Plug-In . SVG Version: 6.00 Build 0)  -->
<svg version="1.1" id="Capa_1" xmlns="http://www.w3.org/2000/svg" xmlns:xlink="http://www.w3.org/1999/xlink" x="0px" y="0px"
	 viewBox="0 0 1200 1200" style="enable-background:new 0 0 1200 1200;" xml:space="preserve">
<style type="text/css">
	.st0{fill:#F2F2F2;}
	.st1{fill:#F64464;}
	.st2{fill:#374258;}
	.st3{fill:#6A7285;}
	.st4{fill:#C3C3C3;}
</style>
<rect x="-17" y="-10" class="st0" width="1232" height="1218"/>
<rect x="460" y="-158" class="st1" width="51" height="95"/>
<rect x="505" y="-158" class="st2" width="51" height="95"/>
<rect x="556" y="-158" class="st3" width="51" height="95"/>
<rect x="607" y="-158" class="st4" width="51" height="95"/>
<rect x="658" y="-158" class="st0" width="51" height="95"/>
<g>
	<g>
		<path class="st2" d="M469.9,634.4c-5.2-3.2-9.5-7.2-13-12c-3.3-4.6-5.9-9.8-7.6-15.6c-1.7-5.8-2.6-11.9-2.6-18.3V565
			c-0.1-10.5-2.8-18.3-8.2-23.4c-5.4-5.1-13.2-7.8-23.5-8v-11.9c10.3-0.2,18.1-2.9,23.5-7.9c5.4-5,8.1-12.8,8.2-23.3v-23.7
			c0-6.4,0.8-12.6,2.5-18.5c1.7-5.9,4.2-11.2,7.6-15.9c3.3-4.6,7.6-8.5,12.8-11.7c5.2-3.2,11.3-5.4,18.3-6.6l2.2,9.1
			c-5.7,1.1-10.5,3-14.3,5.7c-3.9,2.8-7,6.1-9.2,10.2c-2.3,3.8-3.9,8.1-4.8,12.8s-1.4,9.8-1.4,15v23.7c0,9.5-2.3,17.4-7,23.7
			c-4.6,6.4-11.3,10.8-20,13.5c8.7,2.6,15.3,7.2,20,13.6c4.6,6.4,7,14.3,7,23.8v23.5c0.1,5.4,0.7,10.4,1.9,15.2
			c1.2,4.8,3.1,9,5.6,12.8c2.5,3.9,5.6,7.1,9.4,9.8c3.7,2.7,8.1,4.5,13.2,5.5L488,641C481.2,639.8,475.1,637.6,469.9,634.4z"/>
		<path class="st2" d="M733,626.3c3.7-2.7,6.9-6,9.4-9.8c2.4-3.8,4.2-8.1,5.5-12.9c1.2-4.8,1.9-9.8,2-15.1V565
			c0-5.7,0.8-10.9,2.6-15.6c1.7-4.7,4.2-8.6,7.4-12c2.2-2.2,4.7-4.1,7.5-5.7c2.8-1.6,6-3,9.4-4c-3.4-1-6.5-2.3-9.4-3.9
			c-2.8-1.6-5.4-3.5-7.5-5.7c-3.3-3.4-5.7-7.4-7.4-12.1c-1.7-4.6-2.6-9.8-2.6-15.5v-23.7c-0.1-5.7-0.8-11.2-2-16.4
			c-1.3-5.2-3.3-9.7-6-13.7c-2.3-3.4-5.2-6.3-8.7-8.7c-3.6-2.4-7.9-4-12.9-4.9l1.9-9.1c6.4,1,11.9,2.8,16.7,5.6
			c4.8,2.7,8.8,6,12.1,10c4.2,4.9,7.3,10.5,9.3,16.9c2,6.4,3.1,13.1,3.2,20.3v23.7c0,4.6,0.5,8.7,1.6,12.2c1.1,3.6,2.7,6.6,4.7,9.1
			c2.6,3.3,6.1,5.7,10.3,7.3c4.2,1.6,9.2,2.5,14.9,2.6v11.9c-5.4,0.2-10.1,1-14.2,2.4c-4.1,1.5-7.5,3.6-10,6.4
			c-2.4,2.6-4.2,5.8-5.4,9.5c-1.2,3.7-1.8,8.1-1.8,13v23.5c0,6.6-0.9,12.8-2.7,18.8c-1.8,5.9-4.5,11.3-8.2,16
			c-3.4,4.5-7.7,8.4-12.8,11.5c-5.1,3.1-11,5.2-17.6,6.2l-2.3-9.2C724.8,630.8,729.2,629,733,626.3z"/>
	</g>
	<g>
		<path class="st2" d="M275,760.3l21.8-75.6h16.4l21.8,75.6h-13.4l-16.2-61.3h-1l-16.2,61.3H275z M285.6,744.2v-11.7h38.3v11.7
			H285.6z"/>
		<path class="st2" d="M347.6,760.3v-56.4h11.7l1.3,11.9v44.5H347.6z M381.6,760.3v-34.8c0-3.4-0.8-6-2.4-7.9
			c-1.6-1.8-3.8-2.8-6.7-2.8c-8,0-11.9,5.2-11.9,15.7l-3.3-16.5h4.6c0.4-3.8,1.8-6.6,4-8.5c2.2-1.9,5.6-2.8,10-2.8
			c6,0,10.6,1.8,13.8,5.4c3.3,3.6,4.9,8.7,4.9,15.3v36.7H381.6z"/>
		<path class="st2" d="M428.6,761.4c-6,0-10.6-1.4-13.9-4.3c-3.3-2.9-4.9-7-4.9-12.3c0-6.2,2.2-10.9,6.6-14.2s10.6-4.9,18.7-4.9
			c3.2,0,6.1,0.2,8.5,0.5c2.4,0.4,4.7,0.9,6.9,1.7l-2.3,9.6c-2.3-0.5-4.5-0.8-6.5-0.9c-2-0.1-4.1-0.1-6.2-0.1
			c-8.5,0-12.8,2.5-12.8,7.5c0,2.2,0.8,3.8,2.3,5s3.7,1.8,6.5,1.8c3.3,0,6.1-0.6,8.3-1.8c2.2-1.2,3.9-2.7,5-4.6
			c1.1-1.8,1.7-3.7,1.7-5.7v-4.7l2.6,14.5h-4.5l1.8-1.7c0,3.3-0.8,6-2.2,8.2c-1.5,2.2-3.5,3.8-6.1,4.9
			C435.3,760.9,432.2,761.4,428.6,761.4z M448.1,760.9l-1-16.7l-0.7-6.2v-12.6c0-3.3-1.3-5.8-3.9-7.3c-2.6-1.6-6.5-2.4-11.6-2.6
			l-14-0.4l1.1-11.7l11.9,0.2c9.8,0.1,17.1,2.2,21.9,6c4.8,3.9,7.2,9.6,7.2,17v22l8.6,1.2v10.5L448.1,760.9z"/>
		<path class="st2" d="M476,692.3v-11.8h17.2v11.8H476z M511.6,761.4c-6.9,0-11.8-1.9-14.8-5.6c-3-3.7-4.6-9.7-4.6-18v-57.3h13v56.8
			c0,2.6,0.3,4.8,0.8,6.4c0.5,1.6,1.6,2.9,3.1,3.7c1.5,0.8,3.8,1.2,6.8,1.2c3.1,0,6.9-0.7,11.6-2l1.4,12.6c-2.9,0.8-5.8,1.3-8.5,1.7
			C517.7,761.2,514.8,761.4,511.6,761.4z"/>
		<path class="st2" d="M560.3,760.3l-20.5-56.4h13.7l16,45.8h2.2v10.6H560.3z M540.9,785.9l-0.5-11.4l9.3-1.1c3.5-0.4,6.5-1.4,9-2.8
			c2.5-1.5,4.6-3.6,6.4-6.5c1.8-2.9,3.3-6.7,4.7-11.4l13.8-48.8h13.7l-16,51.4c-2.1,6.8-4.6,12.2-7.3,16.3c-2.7,4.1-5.9,7.2-9.6,9.3
			c-3.7,2.1-8.2,3.4-13.3,3.9L540.9,785.9z"/>
		<path class="st2" d="M606.7,715.7v-11.8h52.1v11.8H606.7z M620.5,733.2v-46.4h13v46.4H620.5z M646.5,761.4
			c-9.2,0-15.8-1.9-19.9-5.6c-4.1-3.7-6.1-9.7-6.1-18v-8.4h13v7.3c0,4.4,1.1,7.5,3.3,9.5c2.2,2,5.8,3,10.9,3c1.7,0,3.5-0.1,5.4-0.3
			c1.9-0.2,4.1-0.5,6.5-0.8l1.3,11.9c-2.4,0.4-4.8,0.7-7,1C651.6,761.3,649.1,761.4,646.5,761.4z"/>
		<path class="st2" d="M677.5,760.3v-11.8h22.2v11.8H677.5z M680.7,715.7v-11.8h30.9v11.8H680.7z M704.6,695.7
			c-2.5,0-4.5-0.8-6.2-2.4c-1.6-1.6-2.4-3.7-2.4-6.2s0.8-4.5,2.4-6.2c1.6-1.6,3.7-2.4,6.2-2.4c2.5,0,4.6,0.8,6.2,2.4
			c1.6,1.6,2.4,3.7,2.4,6.2s-0.8,4.5-2.4,6.2C709.2,694.9,707.1,695.7,704.6,695.7z M698.7,760.3v-53.2h13v53.2H698.7z M710.6,760.3
			v-11.8h18v11.8H710.6z"/>
		<path class="st1" d="M790,735.4l0.2,0.3c0.1,8.5-2,14.9-6.1,19.3c-4.1,4.3-10.2,6.5-18.2,6.5c-8,0-14.4-2.5-19.2-7.4
			c-4.8-4.9-7.2-11.9-7.2-20.9V710c0-9,2.3-15.9,6.9-20.9c4.6-5,10.8-7.4,18.6-7.4c8.2,0,14.5,2.2,18.7,6.6
			c4.2,4.4,6.4,10.9,6.5,19.5l-0.2,0.3h-14.6c0.2-5.1-0.5-8.8-2.1-11s-4.4-3.4-8.4-3.4c-3.4,0-6,1.3-7.8,4
			c-1.8,2.7-2.7,6.7-2.7,12.1v23.3c0,5.5,1,9.5,2.9,12.2c1.9,2.7,4.8,4,8.5,4c3.7,0,6.2-1.1,7.6-3.2c1.4-2.1,2.1-5.7,1.9-10.8H790z"
			/>
		<path class="st1" d="M845.1,743.8h-20.4l-4.2,16.6h-15.3l21.8-77.5h15.8l21.8,77.5h-15.3L845.1,743.8z M827.7,731.7H842l-7-27.4
			h-0.3L827.7,731.7z"/>
		<path class="st1" d="M896.7,748.3H925v12.1h-43.5v-77.5h15.2V748.3z"/>
	</g>
	<path class="st3" d="M694.1,477.9v50.2c-4.6-6-11.8-9.9-19.9-9.9s-15.3,3.9-19.9,9.9v-50.2c0-11,8.9-19.9,19.9-19.9
		c5.5,0,10.5,2.2,14.1,5.8C691.9,467.4,694.1,472.4,694.1,477.9z"/>
	<path class="st1" d="M654.3,606.4v-67.8c0-8.4,6.8-15.3,15.3-15.3h9.2c8.4,0,15.3,6.8,15.3,15.3v67.8c0,8.4-6.8,15.3-15.3,15.3
		h-9.2C661.2,621.7,654.3,614.9,654.3,606.4z"/>
	<path class="st1" d="M624.7,441.7v80.1c-4.6-6-11.8-9.9-19.9-9.9c-8.1,0-15.3,3.9-19.9,9.9v-80.1c0-11,8.9-19.9,19.9-19.9
		c5.5,0,10.5,2.2,14.1,5.8C622.5,431.3,624.7,436.2,624.7,441.7z"/>
	<path class="st3" d="M584.9,565.7v-28.8c0-11,8.9-19.9,19.9-19.9l0,0c11,0,19.9,8.9,19.9,19.9v28.8c0,11-8.9,19.9-19.9,19.9l0,0
		C593.9,585.6,584.9,576.7,584.9,565.7z"/>
	<path class="st1" d="M555.3,558.8v43c0,11-8.9,19.9-19.9,19.9c-5.5,0-10.5-2.2-14.1-5.8c-3.6-3.6-5.8-8.6-5.8-14.1v-43
		c4.6,6,11.8,9.9,19.9,9.9C543.6,568.7,550.8,564.8,555.3,558.8z"/>
	<path class="st3" d="M515.6,543.8v-65.8c0-11,8.9-19.9,19.9-19.9l0,0c11,0,19.9,8.9,19.9,19.9v65.8c0,11-8.9,19.9-19.9,19.9l0,0
		C524.5,563.6,515.6,554.7,515.6,543.8z"/>
</g>
</svg>
